# xmcd
#
# Track frame offsets:
#	150
#	10726
#	21042
#	34706
#	44558
#	58712
#	76473
#	87221
#	105590
#	115048
#	126318
#	137986
#	149799
#	159678
#	172635
#	184808
#	196707
#	211049
#	223054
#	234405
#	247815
#	258302
#	274417
#	288049
#	300125
#	319535
#	341433
#
# Disc length: 4799 seconds
#
# Revision: 0
# Processed by: cddbd v1.5.2PL0 Copyright (c) Steve Scherf et al.
# Submitted via: audiograbber 1.83.01
#
DISCID=7112bd1b
DTITLE=Diverse - Country Western 1955 - 1980 CD-5
DYEAR=1900
DGENRE=Country
TTITLE0=Jimmy Dean - Little Black Book
TTITLE1=Ron Mc Leoi - The Cigarette Song
TTITLE2=The Kingston Trio - Reverend Mr Black
TTITLE3=Paul Anka - A Steel Guitar And A Glass Of Wine
TTITLE4=C.C.R. - Pround Mary
TTITLE5=Petula Clark - Kiss Me Goodbye
TTITLE6=The Fendermen - Mule Skinner Blues
TTITLE7=Mouth And Mc Neil - How Do You Do
TTITLE8=Roy Drusky - Second Hand Rose
TTITLE9=Bobby Curtola - Three Rows Over
TTITLE10=Conway Twitty - What Am I Living For
TTITLE11=Jimmy Rodgers - Secretly
TTITLE12=Jimmy Rodgers - Oh Oh I´m Falling In Love Again
TTITLE13=Jim Reevies - Distant Drums
TTITLE14=Bobby Gentry - Louisiana Man
TTITLE15=The Platters - Smoke Gets In Your Eyes
TTITLE16=Cliff Richards - The Young Ones
TTITLE17=Johnny Horton - Sleepy Eyed John
TTITLE18=Marty Robbins - The Blues Country Style
TTITLE19=Murray Mc Laughlin - The Farmer´s Song
TTITLE20=Dovells - Bristol Stomp
TTITLE21=Blue Mink - By The Devil I Was Tempted
TTITLE22=Ronnie Dove - One Kiss For Old Times Sakes
TTITLE23=Jack Scott - Burning Bridges
TTITLE24=Toto - Africa
TTITLE25=The Eagles - One Of These Nights
TTITLE26=Chris De Burgh - Lady In Red
EXTD=
EXTT0=
EXTT1=
EXTT2=
EXTT3=
EXTT4=
EXTT5=
EXTT6=
EXTT7=
EXTT8=
EXTT9=
EXTT10=
EXTT11=
EXTT12=
EXTT13=
EXTT14=
EXTT15=
EXTT16=
EXTT17=
EXTT18=
EXTT19=
EXTT20=
EXTT21=
EXTT22=
EXTT23=
EXTT24=
EXTT25=
EXTT26=
PLAYORDER=
